<svg width="69" height="71" viewBox="0 0 69 71" fill="none" xmlns="http://www.w3.org/2000/svg">
<path d="M11.4936 64.3829C11.4936 61.209 8.92064 58.6361 5.74678 58.6361C2.57292 58.6361 0 61.209 0 64.3829C0 67.5567 2.57292 70.1296 5.74678 70.1296C8.92064 70.1296 11.4936 67.5567 11.4936 64.3829Z" fill="#C4C4C4"/>
<path d="M68.9614 64.3829C68.9614 61.209 66.3884 58.6361 63.2146 58.6361C60.0407 58.6361 57.4678 61.209 57.4678 64.3829C57.4678 67.5567 60.0407 70.1296 63.2146 70.1296C66.3884 70.1296 68.9614 67.5567 68.9614 64.3829Z" fill="#A8CF45"/>
<path d="M69 6.91118C69 3.16582 65.9637 0.129609 62.2184 0.129609C58.473 0.129609 55.4368 3.16582 55.4368 6.91118C55.4368 10.6565 58.473 13.6927 62.2184 13.6927C65.9637 13.6927 69 10.6565 69 6.91118Z" fill="#A8CF45"/>
</svg>
