<svg width="121" height="121" viewBox="0 0 121 121" fill="none" xmlns="http://www.w3.org/2000/svg">
<path d="M8.62744 104.604C4.20484 104.604 0.619635 108.189 0.619635 112.612C0.619635 117.034 4.20484 120.62 8.62744 120.62C13.05 120.62 16.6353 117.034 16.6353 112.612C16.6353 108.189 13.05 104.604 8.62744 104.604Z" fill="#A8CF45"/>
<path d="M60.6229 51.6791C55.6832 51.6791 51.6789 55.6835 51.6789 60.6232C51.6789 65.5628 55.6832 69.5672 60.6229 69.5672C65.5625 69.5672 69.5669 65.5628 69.5669 60.6232C69.5669 55.6835 65.5625 51.6791 60.6229 51.6791Z" fill="#A8CF45"/>
<path d="M8.63102 53.5515C4.72547 53.5515 1.5594 56.7176 1.5594 60.6231C1.5594 64.5287 4.72547 67.6948 8.63102 67.6948C12.5366 67.6948 15.7026 64.5287 15.7026 60.6231C15.7026 56.7176 12.5366 53.5515 8.63102 53.5515Z" fill="#C4C4C4"/>
<path d="M112.612 0.619659C108.189 0.619659 104.604 4.20486 104.604 8.62747C104.604 13.0501 108.189 16.6353 112.612 16.6353C117.034 16.6353 120.62 13.0501 120.62 8.62747C120.62 4.20486 117.034 0.619659 112.612 0.619659Z" fill="#A8CF45"/>
<path d="M60.6232 1.55934C56.7177 1.55934 53.5516 4.72541 53.5516 8.63096C53.5516 12.5365 56.7177 15.7026 60.6232 15.7026C64.5288 15.7026 67.6948 12.5365 67.6948 8.63096C67.6948 4.72541 64.5288 1.55934 60.6232 1.55934Z" fill="#A8CF45"/>
<path d="M8.62727 2.49215C5.23877 2.49215 2.49184 5.23907 2.49184 8.62757C2.49184 12.0161 5.23877 14.763 8.62727 14.763C12.0158 14.763 14.7627 12.0161 14.7627 8.62757C14.7627 5.23907 12.0158 2.49215 8.62727 2.49215Z" fill="#C4C4C4"/>
</svg>
