<svg width="32" height="32" viewBox="0 0 32 32" fill="none" xmlns="http://www.w3.org/2000/svg">
<g clip-path="url(#clip0_129_420)">
<path fill-rule="evenodd" clip-rule="evenodd" d="M16 0.616211C7.16 0.616211 0 7.47609 0 15.9456C0 22.7288 4.58 28.4581 10.94 30.4893C11.74 30.6234 12.04 30.1635 12.04 29.7611C12.04 29.3971 12.02 28.1899 12.02 26.906C8 27.615 6.96 25.9671 6.64 25.1048C6.46 24.6641 5.68 23.3036 5 22.9396C4.44 22.6521 3.64 21.9432 4.98 21.924C6.24 21.9048 7.14 23.0354 7.44 23.4953C8.88 25.8138 11.18 25.1623 12.1 24.7599C12.24 23.7635 12.66 23.0929 13.12 22.7096C9.56 22.3264 5.84 21.0042 5.84 15.1408C5.84 13.4737 6.46 12.0941 7.48 11.021C7.32 10.6378 6.76 9.06651 7.64 6.95873C7.64 6.95873 8.98 6.55633 12.04 8.52998C13.32 8.18507 14.68 8.01262 16.04 8.01262C17.4 8.01262 18.76 8.18507 20.04 8.52998C23.1 6.53717 24.44 6.95873 24.44 6.95873C25.32 9.06651 24.76 10.6378 24.6 11.021C25.62 12.0941 26.24 13.4545 26.24 15.1408C26.24 21.0234 22.5 22.3264 18.94 22.7096C19.52 23.1887 20.02 24.1084 20.02 25.5456C20.02 27.5959 20 29.2438 20 29.7611C20 30.1635 20.3 30.6426 21.1 30.4893C27.42 28.4581 32 22.7096 32 15.9456C32 7.47609 24.84 0.616211 16 0.616211Z" fill="white" fill-opacity="0.87"/>
</g>
<defs>
<clipPath id="clip0_129_420">
<rect width="32" height="30.6587" fill="white" transform="translate(0 0.616211)"/>
</clipPath>
</defs>
</svg>
