<svg width="153" height="31" viewBox="0 0 153 31" fill="none" xmlns="http://www.w3.org/2000/svg">
<path d="M1.888 31V7.96H19.296C20.576 7.96 21.6853 8.42933 22.624 9.368C23.5627 10.2853 24.032 11.3947 24.032 12.696V17.016C24.032 17.2933 24.0107 17.56 23.968 17.816C23.9467 18.0507 23.8933 18.2747 23.808 18.488C24.128 18.8933 24.3947 19.3627 24.608 19.896C24.8213 20.4293 24.928 20.9627 24.928 21.496V26.264C24.928 27.5653 24.4587 28.6853 23.52 29.624C22.5813 30.5413 21.4613 31 20.16 31H1.888ZM7.904 26.008H18.848C19.552 26.008 19.904 26.008 19.904 26.008C19.904 26.008 19.904 25.656 19.904 24.952V22.84C19.904 22.136 19.904 21.784 19.904 21.784C19.904 21.784 19.552 21.784 18.848 21.784H7.904C7.2 21.784 6.848 21.784 6.848 21.784C6.848 21.784 6.848 22.136 6.848 22.84V24.952C6.848 25.656 6.848 26.008 6.848 26.008C6.848 26.008 7.2 26.008 7.904 26.008ZM7.904 16.792H17.952C18.656 16.792 19.008 16.792 19.008 16.792C19.008 16.792 19.008 16.44 19.008 15.736V14.008C19.008 13.304 19.008 12.952 19.008 12.952C19.008 12.952 18.656 12.952 17.952 12.952H7.904C7.2 12.952 6.848 12.952 6.848 12.952C6.848 12.952 6.848 13.304 6.848 14.008V15.736C6.848 16.44 6.848 16.792 6.848 16.792C6.848 16.792 7.2 16.792 7.904 16.792ZM28.481 31V7.96H49.761V12.952H33.505V16.984H46.593V21.976H33.505V26.008H49.761V31H28.481ZM52.981 31V12.696C52.981 11.3947 53.4397 10.2853 54.357 9.368C55.2957 8.42933 56.4157 7.96 57.717 7.96H71.253C72.5543 7.96 73.6743 8.42933 74.613 9.368C75.5517 10.2853 76.021 11.3947 76.021 12.696V31H70.997V23.576H57.941V31H52.981ZM57.941 18.584H70.997V14.008C70.997 13.304 70.997 12.952 70.997 12.952C70.997 12.952 70.645 12.952 69.941 12.952H58.997C58.293 12.952 57.941 12.952 57.941 12.952C57.941 12.952 57.941 13.304 57.941 14.008V18.584ZM87.539 31V12.952H78.515V7.96H101.555V12.952H92.531V31H87.539ZM108.62 31C107.319 31 106.199 30.5413 105.26 29.624C104.343 28.6853 103.884 27.5653 103.884 26.264V24.12H108.844V24.952C108.844 25.656 108.844 26.008 108.844 26.008C108.844 26.008 109.196 26.008 109.9 26.008H120.844C121.548 26.008 121.9 26.008 121.9 26.008C121.9 26.008 121.9 25.656 121.9 24.952V23.032C121.9 22.328 121.9 21.976 121.9 21.976C121.9 21.976 121.548 21.976 120.844 21.976H108.62C107.319 21.976 106.199 21.5173 105.26 20.6C104.343 19.6613 103.884 18.5413 103.884 17.24V12.696C103.884 11.3947 104.343 10.2853 105.26 9.368C106.199 8.42933 107.319 7.96 108.62 7.96H122.188C123.468 7.96 124.578 8.42933 125.516 9.368C126.455 10.2853 126.924 11.3947 126.924 12.696V14.84H121.9V14.008C121.9 13.304 121.9 12.952 121.9 12.952C121.9 12.952 121.548 12.952 120.844 12.952H109.9C109.196 12.952 108.844 12.952 108.844 12.952C108.844 12.952 108.844 13.304 108.844 14.008V15.928C108.844 16.632 108.844 16.984 108.844 16.984C108.844 16.984 109.196 16.984 109.9 16.984H122.188C123.468 16.984 124.578 17.4533 125.516 18.392C126.455 19.3093 126.924 20.4187 126.924 21.72V26.264C126.924 27.5653 126.455 28.6853 125.516 29.624C124.578 30.5413 123.468 31 122.188 31H108.62Z" fill="white" fill-opacity="0.87"/>
<path fill-rule="evenodd" clip-rule="evenodd" d="M147 10H137C135.895 10 135 10.8954 135 12V19H149V12C149 10.8954 148.105 10 147 10ZM133 12V19H132C131.448 19 131 19.4477 131 20V30C131 30.5523 131.448 31 132 31H152C152.552 31 153 30.5523 153 30V20C153 19.4477 152.552 19 152 19H151V12C151 9.79086 149.209 8 147 8H137C134.791 8 133 9.79086 133 12ZM149 21H151V29H133V21H135H149ZM142 26.5C142.828 26.5 143.5 25.8284 143.5 25C143.5 24.1716 142.828 23.5 142 23.5C141.172 23.5 140.5 24.1716 140.5 25C140.5 25.8284 141.172 26.5 142 26.5Z" fill="#B8CF7C"/>
</svg>
